# xmcd
#
# Track frame offsets:
#	150
#	21352
#	42647
#	53932
#	70027
#	86932
#	110997
#	129520
#	141252
#	158787
#	167177
#	182417
#	199535
#	219965
#
# Disc length: 3169 seconds
#
# Revision: 1
# Processed by: cddbd v1.4PL0 Copyright (c) Steve Scherf et al.
# Submitted via: audiograbber 1.81.03
#
DISCID=cf0c5f0e
DTITLE=Last Call - Time To Move
DYEAR=1999
DGENRE=Blues
TTITLE0=I've Been So Blind
TTITLE1=Walk The Line
TTITLE2=Everytime
TTITLE3=Long Time Ago
TTITLE4=Ain't No Shame
TTITLE5=Tell Me
TTITLE6=You Used To Hold Me
TTITLE7=El Cumbachero
TTITLE8=That's Right
TTITLE9=Just Can't Live That Fast (Anymore)
TTITLE10=Rosalita
TTITLE11=Last Call
TTITLE12=Aw!
TTITLE13=Adios
EXTD=
EXTT0=
EXTT1=
EXTT2=
EXTT3=
EXTT4=
EXTT5=
EXTT6=
EXTT7=
EXTT8=
EXTT9=
EXTT10=
EXTT11=
EXTT12=
EXTT13=
PLAYORDER=
